<?xml version="1.0" encoding="iso-8859-1"?>
<!-- Uploaded to: SVG Repo, www.svgrepo.com, Generator: SVG Repo Mixer Tools -->
<!DOCTYPE svg PUBLIC "-//W3C//DTD SVG 1.1//EN" "http://www.w3.org/Graphics/SVG/1.1/DTD/svg11.dtd">
<svg fill="#000000" version="1.1" id="Layer_1" xmlns="http://www.w3.org/2000/svg" xmlns:xlink="http://www.w3.org/1999/xlink" 
	 width="800px" height="800px" viewBox="0 0 612 612" xml:space="preserve">
<g>
	<path d="M522.375,89.625C464.579,31.83,387.736,0,306,0S147.421,31.83,89.625,89.625C31.83,147.421,0,224.264,0,306
		s31.83,158.579,89.625,216.375c14.339,14.34,29.854,27.075,46.323,38.13c1.243,1.648,3.036,2.854,5.113,3.343
		C189.845,595.189,246.627,612,306,612c81.736,0,158.579-31.83,216.375-89.625C580.17,464.579,612,387.736,612,306
		S580.17,147.421,522.375,89.625z M569.367,188.998c3.175,7.138,6.04,14.41,8.616,21.789h-97.959
		c3.276-6.393,9.935-10.779,17.6-10.779c1.774,0,3.648,0.329,5.896,1.04c3.748,1.182,7.83-0.211,10.075-3.437
		c7.303-10.498,19.24-16.765,31.935-16.765c8.46,0,16.505,2.684,23.261,7.763C568.979,188.75,569.173,188.873,569.367,188.998z
		 M102.329,102.329c5.94-5.94,12.106-11.571,18.457-16.92c0.443,0.167,0.898,0.31,1.377,0.408
		c9.792,1.998,18.368,7.673,24.148,15.983c2.245,3.227,6.326,4.619,10.076,3.437c2.247-0.711,4.122-1.041,5.895-1.041
		c7.664,0,14.323,4.386,17.6,10.779H90.435C94.264,110.664,98.217,106.44,102.329,102.329z M17.965,306
		c0-3.748,0.092-7.482,0.235-11.205c114.278-18.702,177.748,12.825,233.844,40.693c26.028,12.93,51.08,25.366,79.088,32.009
		c-45.269,13.827-90.938,25.103-148.01,25.322c-42.628-15.825-94.443-28.043-159.307-28.677
		C19.955,345.214,17.965,325.762,17.965,306z M318.525,345.262c7.378-18.198,25.172-30.279,44.962-30.279
		c19.199,0,36.521,11.368,44.274,28.663c-12.041,3.518-23.779,7.174-35.382,10.851C352.885,354.415,335.414,350.892,318.525,345.262
		z M102.329,509.672C66.37,473.713,41.1,429.917,28.091,382.141c60.597,1.079,108.567,12.39,148.637,27.306
		c0.969,0.6,2.059,1.019,3.228,1.214c32.899,12.535,60.452,27.425,85.353,40.887c25.448,13.756,48.418,26.169,71.044,32.143
		c-0.637,0.311-1.273,0.622-1.908,0.931c-63.612,31.052-123.766,60.392-187.74,61.458
		C130.916,535.555,116.05,523.393,102.329,509.672z M509.672,509.672C455.27,564.073,382.938,594.035,306,594.035
		c-46.719,0-91.732-11.067-132.071-31.927c57.615-7.282,111.669-33.654,168.396-61.344c69.068-33.714,140.415-68.541,223.777-70.701
		C552.162,459.234,533.21,486.134,509.672,509.672z M573.97,411.996c-78.173,0.071-144.99,27.353-208.64,57.675
		c-0.595-0.124-1.21-0.191-1.843-0.191c-27.228,0-54.768-14.888-89.636-33.735c-15.592-8.43-32.795-17.725-52.149-26.75
		c54.069-4.885,98.523-19.037,145.06-33.859c63.102-20.1,128.353-40.876,225.919-40.984
		C590.084,361.095,583.756,387.24,573.97,411.996z M593.437,316.18c-68.452,0-121.206,9.815-168.247,22.556
		c-10.056-25.065-34.504-41.718-61.702-41.718c-27.274,0-51.788,16.747-61.789,41.933c-13.681-5.653-27.301-12.416-41.663-19.551
		c-30.056-14.931-61.134-30.37-100.949-39.77c-42.744-10.09-88.511-11.152-139.62-3.224c5.309-52.35,24.676-101.652,56.252-143.482
		c0.111,0.002,0.22,0.016,0.332,0.016h114.975c4.961,0,8.982-4.022,8.982-8.982c0-20.802-16.924-37.726-37.726-37.726
		c-1.659,0-3.334,0.128-5.049,0.39c-5.404-6.225-12.025-11.144-19.434-14.499C186.477,36.957,244.775,17.965,306,17.965
		c16.422,0,32.633,1.377,48.505,4.053V66.47c0,4.96,4.021,8.982,8.982,8.982s8.982-4.022,8.982-8.982V25.649
		c51.535,12.117,98.831,38.308,137.202,76.68c18.628,18.628,34.387,39.359,47.062,61.656c-3.653-0.729-7.399-1.104-11.203-1.104
		c-16.489,0-32.096,7.212-42.85,19.554c-1.718-0.262-3.396-0.392-5.057-0.392c-20.802,0-37.726,16.924-37.726,37.726
		c0,4.96,4.021,8.982,8.982,8.982h16.64l-3.828,3.829c-3.509,3.508-3.509,9.194,0,12.702c1.753,1.753,4.053,2.631,6.351,2.631
		c2.299,0,4.598-0.877,6.352-2.631l14.371-14.372c0.654-0.652,1.185-1.383,1.596-2.159h73.254
		c6.871,24.843,10.42,50.773,10.42,77.249c0,3.411-0.08,6.809-0.197,10.2C593.703,316.194,593.571,316.18,593.437,316.18z"/>
	<path d="M373.068,210.787c-1.661,0-3.34,0.129-5.057,0.392c-10.754-12.342-26.36-19.554-42.85-19.554
		c-12.019,0-23.558,3.846-33.101,10.703c-6.672-14.767-21.529-25.074-38.758-25.074c-1.662,0-3.358,0.119-5.114,0.357
		c-10.484-9.535-23.799-14.729-38.001-14.729c-31.368,0-56.889,25.521-56.889,56.888c0,4.96,4.022,8.982,8.982,8.982h82.855
		c-3.551,5.751-5.606,12.52-5.606,19.761c0,4.961,4.022,8.982,8.982,8.982h153.3c4.96,0,8.982-4.021,8.982-8.982
		C410.795,227.711,393.87,210.787,373.068,210.787z M172.311,210.787c4.065-17.147,19.505-29.941,37.877-29.941
		c10.842,0,20.949,4.467,28.461,12.579c2.224,2.402,5.578,3.402,8.755,2.616c2.259-0.562,4.133-0.823,5.899-0.823
		c10.369,0,19.258,6.462,22.851,15.569H172.311L172.311,210.787z M259.657,239.53c3.276-6.393,9.935-10.779,17.6-10.779
		c1.775,0,3.648,0.33,5.896,1.04c3.75,1.182,7.83-0.211,10.076-3.438c7.302-10.497,19.241-16.765,31.934-16.765
		c12.694,0,24.633,6.268,31.936,16.765c2.244,3.227,6.326,4.618,10.076,3.438c2.248-0.709,4.121-1.04,5.896-1.04
		c7.664,0,14.323,4.386,17.6,10.779H259.657z"/>
	<path d="M296.419,152.102h124.556c4.961,0,8.982-4.021,8.982-8.982c0-31.368-25.521-56.888-56.889-56.888
		c-14.203,0-27.518,5.194-38.001,14.729c-1.756-0.238-3.452-0.357-5.114-0.357c-23.444,0-42.517,19.073-42.517,42.517
		C287.437,148.08,291.458,152.102,296.419,152.102z M329.953,118.567c1.767,0,3.641,0.261,5.899,0.823
		c3.177,0.787,6.531-0.213,8.755-2.616c7.512-8.111,17.619-12.579,28.461-12.579c18.372,0,33.813,12.794,37.877,29.941H307.102
		C310.694,125.03,319.584,118.567,329.953,118.567z"/>
	<path d="M283.409,270.705c-3.508-3.508-9.196-3.508-12.702,0c-3.508,3.508-3.508,9.196,0,12.703l25.456,25.456
		c1.753,1.755,4.053,2.632,6.351,2.632s4.598-0.877,6.352-2.632c3.508-3.508,3.508-9.195,0-12.702L283.409,270.705z"/>
	<path d="M162.282,171.264c2.298,0,4.598-0.876,6.351-2.631c3.508-3.508,3.508-9.194,0-12.702l-9.581-9.581
		c-3.508-3.508-9.196-3.508-12.702,0c-3.508,3.508-3.508,9.194,0,12.702l9.581,9.581
		C157.684,170.388,159.983,171.264,162.282,171.264z"/>
	<path d="M452.948,261.324l-34.837,34.837c-3.508,3.508-3.508,9.196,0,12.702c1.753,1.755,4.053,2.632,6.351,2.632
		c2.299,0,4.598-0.877,6.352-2.632l34.837-34.837c3.508-3.508,3.508-9.194,0-12.702
		C462.144,257.816,456.455,257.816,452.948,261.324z"/>
	<path d="M354.505,171.863v9.581c0,4.96,4.021,8.982,8.982,8.982s8.982-4.022,8.982-8.982v-9.581c0-4.961-4.021-8.982-8.982-8.982
		S354.505,166.902,354.505,171.863z"/>
	<circle cx="363.487" cy="277.256" r="9.581"/>
</g>
</svg>